<svg width="92" height="92" viewBox="0 0 92 92" fill="none" xmlns="http://www.w3.org/2000/svg">
<rect width="92" height="92" fill="#030303"/>
<path d="M59.8835 73.7869C57.8593 73.7869 56.1193 73.5265 54.6633 73.0057C53.2074 72.4967 51.994 71.822 51.0234 70.9815C50.0646 70.1529 49.3011 69.2652 48.7329 68.3182L52.071 65.9744C52.4498 66.4716 52.9292 67.0398 53.5092 67.679C54.0892 68.33 54.8823 68.8923 55.8885 69.3658C56.9065 69.8511 58.2381 70.0938 59.8835 70.0938C62.0852 70.0938 63.9022 69.5611 65.3345 68.4957C66.7668 67.4304 67.4829 65.7614 67.4829 63.4886V57.9489H67.1278C66.82 58.446 66.3821 59.0616 65.8139 59.7955C65.2575 60.5175 64.4526 61.1626 63.3991 61.7308C62.3574 62.2872 60.9488 62.5653 59.1733 62.5653C56.9716 62.5653 54.9948 62.0445 53.2429 61.0028C51.5028 59.9612 50.1238 58.446 49.1058 56.4574C48.0996 54.4688 47.5966 52.054 47.5966 49.2131C47.5966 46.4195 48.0878 43.987 49.0703 41.9155C50.0528 39.8322 51.4199 38.2223 53.1718 37.0859C54.9237 35.9377 56.9479 35.3636 59.2443 35.3636C61.0199 35.3636 62.4285 35.6596 63.4701 36.2514C64.5236 36.8314 65.3286 37.4943 65.8849 38.2401C66.4531 38.974 66.8911 39.5777 67.1988 40.0511H67.625V35.7188H71.6733V63.7727C71.6733 66.1165 71.1406 68.0223 70.0752 69.4901C69.0217 70.9697 67.6013 72.0528 65.8139 72.7393C64.0383 73.4377 62.0615 73.7869 59.8835 73.7869ZM59.7414 58.8011C61.4223 58.8011 62.8428 58.4164 64.0028 57.647C65.1628 56.8776 66.0447 55.7708 66.6484 54.3267C67.2521 52.8826 67.5539 51.1544 67.5539 49.142C67.5539 47.1771 67.258 45.4429 66.6662 43.9396C66.0743 42.4363 65.1984 41.2585 64.0383 40.4063C62.8783 39.554 61.446 39.1278 59.7414 39.1278C57.9659 39.1278 56.4862 39.5777 55.3025 40.4773C54.1306 41.3769 53.2488 42.5843 52.6569 44.0994C52.0769 45.6146 51.7869 47.2955 51.7869 49.142C51.7869 51.036 52.0828 52.7109 52.6747 54.1669C53.2784 55.611 54.1662 56.7474 55.338 57.576C56.5217 58.3928 57.9895 58.8011 59.7414 58.8011Z" fill="white"/>
<path d="M20 54.3636V18H32.2869C35.1278 18 37.4598 18.4853 39.2827 19.456C41.1056 20.4148 42.455 21.7346 43.331 23.4155C44.2069 25.0964 44.6449 27.0081 44.6449 29.1506C44.6449 31.2931 44.2069 33.1929 43.331 34.8501C42.455 36.5073 41.1115 37.8094 39.3004 38.7564C37.4893 39.6915 35.1752 40.1591 32.358 40.1591H22.4148V36.1818H32.2159C34.1572 36.1818 35.7197 35.8977 36.9034 35.3295C38.099 34.7614 38.9631 33.9564 39.4957 32.9148C40.0402 31.8613 40.3125 30.6065 40.3125 29.1506C40.3125 27.6946 40.0402 26.4221 39.4957 25.3331C38.9512 24.2441 38.0812 23.4036 36.8857 22.8118C35.6901 22.2081 34.1098 21.9062 32.1449 21.9062H24.4034V54.3636H20ZM37.1165 38.0284L46.0653 54.3636H40.9517L32.1449 38.0284H37.1165Z" fill="#F7D945"/>
</svg>
